<svg xmlns="http://www.w3.org/2000/svg" xmlns:xlink="http://www.w3.org/1999/xlink" width="500" zoomAndPan="magnify" viewBox="0 0 375 374.999991" height="500" preserveAspectRatio="xMidYMid meet" version="1.0"><defs><clipPath id="58ce41f43c"><path d="M 0 0 L 329.25 0 L 329.25 375 L 0 375 Z M 0 0 " clip-rule="nonzero"/></clipPath></defs><g clip-path="url(#58ce41f43c)"><path fill="#5cb9e5" d="M 329.144531 0 L 185.394531 0 L 151.800781 25.800781 L 207.96875 93 Z M 139.429688 0 L 0.105469 106.875 L 0.105469 0 Z M 45.921875 174.75 L 0.105469 209.925781 L 0.105469 119.851562 Z M 0.105469 280.351562 L 98.863281 375 L 0.105469 375 Z M 0.105469 280.351562 " fill-opacity="1" fill-rule="evenodd"/></g><path fill="#8758ff" d="M 263.832031 0 L 120.082031 0 L 86.488281 25.800781 L 142.652344 93 Z M 45.921875 103.273438 L 0.105469 138.523438 L 0.105469 48.449219 Z M 0.105469 243.75 L 0.105469 354 L 82.738281 290.625 L 26.574219 223.425781 Z M 0.105469 243.75 " fill-opacity="1" fill-rule="evenodd"/><path fill="#f5f5f5" d="M 0.105469 46.726562 L 15.625 34.800781 C 16.375 34.273438 17.425781 34.351562 18.027344 35.023438 L 74.191406 102.226562 C 74.789062 102.898438 74.640625 103.949219 73.890625 104.550781 L 0.105469 161.175781 L 0.105469 156.976562 L 70.441406 102.976562 L 16.375 38.398438 L 0.105469 50.925781 Z M 0.105469 183.75 L 0.105469 294 L 107.636719 211.5 L 51.46875 144.300781 Z M 0.105469 183.75 " fill-opacity="1" fill-rule="evenodd"/></svg>