<svg xmlns="http://www.w3.org/2000/svg" xmlns:xlink="http://www.w3.org/1999/xlink" width="500" zoomAndPan="magnify" viewBox="0 0 375 374.999991" height="500" preserveAspectRatio="xMidYMid meet" version="1.0"><defs><clipPath id="f87065626d"><path d="M 152.351562 121.464844 L 375 121.464844 L 375 374.964844 L 152.351562 374.964844 Z M 152.351562 121.464844 " clip-rule="nonzero"/></clipPath><clipPath id="59b2d6eff8"><path d="M 152.351562 121.464844 L 331 121.464844 L 331 361 L 152.351562 361 Z M 152.351562 121.464844 " clip-rule="nonzero"/></clipPath><clipPath id="a39df10005"><path d="M 152.351562 144 L 226 144 L 226 321 L 152.351562 321 Z M 152.351562 144 " clip-rule="nonzero"/></clipPath></defs><g clip-path="url(#f87065626d)"><path fill="#5cb9e5" d="M 375.023438 121.464844 L 277.777344 121.464844 L 255.050781 138.90625 L 293.046875 184.332031 Z M 246.679688 121.464844 L 152.425781 193.710938 L 152.425781 121.464844 Z M 183.421875 239.597656 L 152.425781 263.375 L 152.425781 202.484375 Z M 152.425781 310.980469 L 219.234375 374.964844 L 152.425781 374.964844 Z M 152.425781 310.980469 " fill-opacity="1" fill-rule="evenodd"/></g><g clip-path="url(#59b2d6eff8)"><path fill="#8758ff" d="M 330.839844 121.464844 L 233.59375 121.464844 L 210.867188 138.90625 L 248.863281 184.332031 Z M 183.421875 191.277344 L 152.425781 215.109375 L 152.425781 154.21875 Z M 152.425781 286.238281 L 152.425781 360.769531 L 208.328125 317.925781 L 170.332031 272.5 Z M 152.425781 286.238281 " fill-opacity="1" fill-rule="evenodd"/></g><g clip-path="url(#a39df10005)"><path fill="#9b5bff" d="M 152.425781 153.050781 L 162.925781 144.988281 C 163.433594 144.636719 164.144531 144.6875 164.550781 145.140625 L 202.546875 190.570312 C 202.953125 191.027344 202.851562 191.734375 202.34375 192.140625 L 152.425781 230.417969 L 152.425781 227.582031 L 200.011719 191.078125 L 163.433594 147.421875 L 152.425781 155.890625 Z M 152.425781 245.679688 L 152.425781 320.210938 L 225.171875 264.4375 L 187.175781 219.011719 Z M 152.425781 245.679688 " fill-opacity="1" fill-rule="evenodd"/></g></svg>