<svg width="16" height="16" viewBox="0 0 16 16" fill="none" xmlns="http://www.w3.org/2000/svg">
<g clip-path="url(#clip0_29_536)">
<path d="M5 13.1973L5.37554 12.5481C5.20275 12.4481 4.99725 12.4212 4.80453 12.4732L5 13.1973ZM2 14L1.29019 13.7578C1.20078 14.0198 1.26298 14.3098 1.452 14.512C1.64101 14.7143 1.9261 14.796 2.19358 14.7246L2 14ZM2.91801 11.3127L3.62759 11.5555C3.70805 11.3205 3.66689 11.0609 3.51768 10.8622L2.91801 11.3127ZM13.25 8C13.25 10.8995 10.8995 13.25 8 13.25V14.75C11.7279 14.75 14.75 11.7279 14.75 8H13.25ZM2.75 8C2.75 5.10051 5.10051 2.75 8 2.75V1.25C4.27208 1.25 1.25 4.27208 1.25 8H2.75ZM8 2.75C10.8995 2.75 13.25 5.10051 13.25 8H14.75C14.75 4.27208 11.7279 1.25 8 1.25V2.75ZM8 13.25C7.0425 13.25 6.14699 12.9944 5.37554 12.5481L4.62446 13.8465C5.61805 14.4213 6.77178 14.75 8 14.75V13.25ZM4.80453 12.4732C4.58651 12.5321 3.83771 12.7324 3.14192 12.9185C2.79435 13.0114 2.46048 13.1006 2.21349 13.1666C2.08999 13.1996 1.98822 13.2268 1.91733 13.2458C1.88188 13.2553 1.85415 13.2627 1.83529 13.2677C1.82586 13.2702 1.81864 13.2721 1.81378 13.2734C1.81135 13.2741 1.80951 13.2746 1.80828 13.2749C1.80766 13.2751 1.8072 13.2752 1.80689 13.2753C1.80673 13.2753 1.80662 13.2754 1.80654 13.2754C1.8065 13.2754 1.80647 13.2754 1.80645 13.2754C1.80643 13.2754 1.80642 13.2754 2 14C2.19358 14.7246 2.19359 14.7246 2.19361 14.7246C2.19363 14.7246 2.19366 14.7246 2.19369 14.7246C2.19377 14.7245 2.19389 14.7245 2.19405 14.7245C2.19436 14.7244 2.19482 14.7243 2.19544 14.7241C2.19667 14.7238 2.19851 14.7233 2.20094 14.7226C2.20581 14.7213 2.21303 14.7194 2.22246 14.7169C2.24134 14.7118 2.26907 14.7044 2.30453 14.6949C2.37544 14.676 2.47723 14.6488 2.60075 14.6158C2.84778 14.5498 3.18172 14.4605 3.52937 14.3676C4.22401 14.1818 4.97521 13.9808 5.19547 13.9214L4.80453 12.4732ZM2 14C2.70981 14.2422 2.70981 14.2422 2.70981 14.2422C2.70982 14.2422 2.70982 14.2422 2.70983 14.2422C2.70985 14.2421 2.70988 14.242 2.70992 14.2419C2.70999 14.2417 2.7101 14.2414 2.71025 14.2409C2.71054 14.2401 2.71098 14.2388 2.71156 14.2371C2.71272 14.2337 2.71445 14.2286 2.71672 14.222C2.72126 14.2087 2.72796 14.189 2.7366 14.1637C2.75387 14.1131 2.77889 14.0398 2.80987 13.949C2.87185 13.7675 2.95768 13.516 3.05316 13.2365C3.24412 12.6772 3.47355 12.0056 3.62759 11.5555L2.20843 11.0698C2.05418 11.5204 1.8246 12.1925 1.63363 12.7517C1.53814 13.0314 1.45228 13.2829 1.3903 13.4645C1.3593 13.5553 1.33428 13.6286 1.317 13.6792C1.30836 13.7045 1.30166 13.7242 1.29712 13.7375C1.29485 13.7441 1.29312 13.7492 1.29195 13.7526C1.29137 13.7543 1.29093 13.7556 1.29064 13.7565C1.29049 13.7569 1.29038 13.7572 1.29031 13.7574C1.29027 13.7576 1.29024 13.7576 1.29022 13.7577C1.29021 13.7577 1.29021 13.7577 1.2902 13.7577C1.2902 13.7578 1.29019 13.7578 2 14ZM3.51768 10.8622C2.90358 10.0447 2.75 9.27468 2.75 8H1.25C1.25 9.42678 1.42599 10.5751 2.31834 11.7631L3.51768 10.8622Z" fill="#282828"/>
</g>
<defs>
<clipPath id="clip0_29_536">
<rect width="16" height="16" fill="white"/>
</clipPath>
</defs>
</svg>
